#!OML:ASF H:\Terrain\Patient Classification 1\Walking\liu\liu.ASF
:FULLY-SPECIFIED
:DEGREES
324
root 9.740710 16.369699 9.218860 7.205150 9.757400 4.440560
lowerback -8.873612 -5.372411 -7.123941
upperback -1.191586 -6.604895 2.029313
thorax 4.672712 -3.413377 5.297182
lowerneck -21.544052 -5.938581 -14.511530
upperneck 23.937981 -7.500119 14.096170
head 12.343320 -2.978569 6.468374
rclavicle -0.000000 -0.000000
rhumerus -55.798382 5.323725 -90.751984
rradius 33.470470
rwrist -17.286501
rhand -31.719269 -26.101240
rfingers 7.837522
rthumb -2.412344 -59.066483
lclavicle -0.000000 -0.000000
lhumerus -24.405701 -44.117699 109.022209
lradius 45.480270
lwrist 10.386662
lhand -5.812257 -27.021170
lfingers 7.837522
lthumb 22.572660 4.807847
rfemur -47.220253 1.602942 14.327500
rtibia 38.296722
rfoot -7.513286 -2.054316
rtoes -29.300041
lfemur 26.991692 4.710409 -24.392281
ltibia -0.000000
lfoot -7.878288 -5.561281
ltoes -16.335220
325
root 9.714460 16.357000 9.405260 7.035890 9.629550 4.066670
lowerback -8.629457 -5.235406 -6.701266
upperback -1.223244 -6.476228 2.051720
thorax 4.445309 -3.336300 5.124779
lowerneck -21.194691 -5.754001 -14.528690
upperneck 23.320219 -7.353434 14.615040
head 12.046320 -2.864807 6.671610
rclavicle 0.000000 -0.000000
rhumerus -55.959862 5.529392 -90.971436
rradius 33.634811
rwrist -17.891171
rhand -32.032772 -25.604151
rfingers 7.837522
rthumb -2.715119 -58.566093
lclavicle 0.000000 -0.000000
lhumerus -25.282181 -44.179413 109.565727
lradius 45.213520
lwrist 10.487521
lhand -5.958491 -27.068691
lfingers 7.837522
lthumb 22.432192 4.775386
rfemur -47.250938 1.557281 15.204091
rtibia 39.708241
rfoot -6.489912 -1.578203
rtoes -28.554022
lfemur 27.768950 5.067535 -23.519321
ltibia -0.000000
lfoot -6.173783 -5.761338
ltoes -17.569311
326
root 9.692980 16.352100 9.601310 6.949000 9.416130 3.767580
lowerback -8.652843 -5.111678 -6.426354
upperback -1.278882 -6.336429 2.111472
thorax 4.360895 -3.259542 5.054533
lowerneck -20.784060 -5.611221 -14.348181
upperneck 22.895512 -7.192955 14.532210
head 11.776160 -2.799269 6.616214
rclavicle 0.000000 0.000000
rhumerus -55.995613 5.614158 -90.903336
rradius 33.565620
rwrist -17.421141
rhand -31.307539 -24.441120
rfingers 7.837522
rthumb -2.014672 -57.410213
lclavicle 0.000000 0.000000
lhumerus -26.281200 -43.771858 110.213402
lradius 44.868454
lwrist 10.223015
lhand -6.441721 -27.224892
lfingers 7.837522
lthumb 21.967770 4.668235
rfemur -47.402847 1.642586 15.917770
rtibia 41.137691
rfoot -6.022511 -1.064708
rtoes -26.857161
lfemur 28.422569 5.502486 -22.744040
ltibia 0.000000
lfoot -4.245879 -5.469299
ltoes -17.213900
327
root 9.670920 16.346901 9.793550 7.037060 9.290460 3.473780
lowerback -8.835101 -5.088578 -6.206574
upperback -1.408099 -6.320369 2.239127
thorax 4.316939 -3.244879 5.059846
lowerneck -20.702000 -5.570961 -14.355221
upperneck 22.957111 -7.133687 14.470171
head 11.770990 -2.782549 6.605599
rclavicle 0.000000 -0.000000
rhumerus -55.788483 6.158427 -91.144348
rradius 33.274342
rwrist -17.222811
rhand -31.386190 -24.490292
rfingers 7.837522
rthumb -2.090682 -57.458611
lclavicle 0.000000 -0.000000
lhumerus -27.259211 -42.622471 110.895409
lradius 44.276100
lwrist 9.773808
lhand -7.032355 -27.430040
lfingers 7.837522
lthumb 21.399950 4.521396
rfemur -47.611080 1.627461 16.632000
rtibia 42.456482
rfoot -6.023831 -0.280202
rtoes -25.574121
lfemur 28.873569 5.844795 -22.011992
ltibia -0.000000
lfoot -2.277297 -5.004560
ltoes -16.337971
328
root 9.650580 16.342600 9.980380 7.015450 9.318950 3.154170
lowerback -8.825399 -5.172354 -5.926767
upperback -1.535270 -6.463853 2.396955
thorax 4.185445 -3.307436 5.055501
lowerneck -20.580669 -5.414992 -14.470831
upperneck 22.885830 -6.946578 14.710191
head 11.705650 -2.683934 6.744826
rclavicle 0.000000 -0.000000
rhumerus -55.516014 6.687164 -91.324860
rradius 33.072269
rwrist -17.256250
rhand -32.171810 -25.782570
rfingers 7.837522
rthumb -2.849440 -58.743084
lclavicle 0.000000 -0.000000
lhumerus -28.164511 -41.267712 111.513603
lradius 43.433060
lwrist 9.275267
lhand -7.193868 -27.424541
lfingers 7.837522
lthumb 21.244629 4.542538
rfemur -47.458179 1.451483 17.448860
rtibia 43.555378
rfoot -6.110995 0.454110
rtoes -24.043142
lfemur 29.433691 6.024546 -21.236380
ltibia 0.000000
lfoot -0.171953 -4.707373
ltoes -16.312561
329
root 9.629150 16.341700 10.167100 6.832790 9.283110 2.737170
lowerback -8.698613 -5.144689 -5.540667
upperback -1.520200 -6.471806 2.540604
thorax 4.108390 -3.306369 4.998466
lowerneck -20.686930 -5.336232 -14.470611
upperneck 22.782431 -6.841384 14.828770
head 11.676390 -2.618814 6.802631
rclavicle 0.000000 -0.000000
rhumerus -55.102081 6.607238 -91.027863
rradius 32.897041
rwrist -16.513971
rhand -31.051022 -27.415190
rfingers 7.837522
rthumb -1.766985 -60.386261
lclavicle 0.000000 -0.000000
lhumerus -28.909981 -40.447552 112.032799
lradius 42.595852
lwrist 8.716510
lhand -7.602529 -27.444012
lfingers 7.837522
lthumb 20.851601 4.561953
rfemur -47.031052 1.392941 18.405531
rtibia 44.413383
rfoot -6.141839 0.770743
rtoes -21.089531
lfemur 30.106781 6.277909 -20.328112
ltibia 0.000000
lfoot 2.221263 -4.381344
ltoes -16.900181
330
root 9.591640 16.348000 10.357400 6.707490 9.024390 1.926840
lowerback -8.733780 -4.954961 -4.883868
upperback -1.482965 -6.282133 2.777852
thorax 4.104837 -3.206115 4.901105
lowerneck -20.984591 -5.336496 -14.286910
upperneck 22.878021 -6.831803 14.678731
head 11.754710 -2.605944 6.718701
rclavicle 0.000000 0.000000
rhumerus -54.503021 6.163058 -90.567726
rradius 32.304802
rwrist -15.455111
rhand -28.392761 -29.539400
rfingers 7.837522
rthumb 0.800498 -62.515751
lclavicle 0.000000 0.000000
lhumerus -29.574821 -39.613094 112.376007
lradius 41.832233
lwrist 8.449100
lhand -8.856617 -27.704269
lfingers 7.837522
lthumb 19.645231 4.415631
rfemur -46.690380 2.061939 19.715742
rtibia 45.099560
rfoot -6.418511 0.529002
rtoes -18.728161
lfemur 30.575712 6.791664 -18.900091
ltibia 0.000000
lfoot 4.567816 -3.980053
ltoes -18.487591
331
root 9.558110 16.364201 10.550300 6.393250 8.937540 0.980213
lowerback -8.714365 -4.860559 -4.075313
upperback -1.388255 -6.236659 3.054260
thorax 4.138112 -3.177372 4.741638
lowerneck -21.241220 -5.302847 -14.062950
upperneck 23.117161 -6.797219 14.492391
head 11.870761 -2.584186 6.623815
rclavicle 0.000000 0.000000
rhumerus -53.925190 5.903535 -90.274139
rradius 31.777021
rwrist -14.988491
rhand -27.263391 -29.521471
rfingers 7.837522
rthumb 1.891263 -62.491554
lclavicle 0.000000 0.000000
lhumerus -30.159582 -38.456551 112.587196
lradius 40.916698
lwrist 8.685083
lhand -9.695511 -27.851341
lfingers 7.837522
lthumb 18.837940 4.340457
rfemur -45.937431 2.602094 21.198320
rtibia 45.664410
rfoot -7.010664 0.587537
rtoes -17.665121
lfemur 31.264971 7.105274 -17.258890
ltibia 0.000000
lfoot 6.691542 -3.548204
ltoes -19.802860
332
root 9.549160 16.385799 10.736300 6.020710 9.208590 0.805150
lowerback -8.533085 -4.910763 -3.845171
upperback -1.233441 -6.329202 3.052346
thorax 4.185588 -3.223990 4.605986
lowerneck -21.432840 -5.383268 -14.049750
upperneck 23.247511 -6.911531 14.513401
head 11.973720 -2.626690 6.617149
rclavicle 0.000000 -0.000000
rhumerus -53.408413 5.798210 -90.233994
rradius 32.075008
rwrist -14.921500
rhand -27.769720 -31.638090
rfingers 7.837522
rthumb 1.402280 -64.611580
lclavicle 0.000000 -0.000000
lhumerus -30.566252 -37.412651 112.846802
lradius 39.671940
lwrist 8.641523
lhand -10.225150 -27.951330
lfingers 7.837522
lthumb 18.328091 4.284016
rfemur -44.832920 2.010074 21.864590
rtibia 46.149513
rfoot -7.749467 1.530749
rtoes -17.724520
lfemur 27.744421 7.333359 -16.444450
ltibia 8.425913
lfoot 5.445770 -4.442427
ltoes -17.590210
333
root 9.536810 16.409901 10.908400 5.961310 9.623920 1.056020
lowerback -8.310071 -5.030795 -4.119071
upperback -1.240470 -6.470167 2.976930
thorax 4.087963 -3.296095 4.679081
lowerneck -21.750740 -5.507865 -13.967580
upperneck 23.426920 -7.059701 14.379970
head 12.116060 -2.691975 6.535067
rclavicle 0.000000 -0.000000
rhumerus -52.719700 4.879622 -89.279526
rradius 31.044310
rwrist -13.415490
rhand -27.646299 -28.164841
rfingers 7.837522
rthumb 1.521432 -61.137672
lclavicle 0.000000 -0.000000
lhumerus -30.880192 -36.144352 113.109703
lradius 38.234459
lwrist 7.918790
lhand -11.422510 -28.095871
lfingers 7.837522
lthumb 17.175070 4.232954
rfemur -44.046642 1.330758 21.895830
rtibia 46.554314
rfoot -8.467118 2.073940
rtoes -17.238211
lfemur 25.130161 7.333568 -16.300461
ltibia 14.139840
lfoot 6.073463 -4.629185
ltoes -13.662001
